<svg width="64" height="64" viewBox="0 0 64 64" fill="none" xmlns="http://www.w3.org/2000/svg">
<g id="Icon">
<g id="Bg">
<rect id="Rectangle" width="64" height="64" rx="32" fill="#5D5DFF"/>
</g>
<g id="Shapes">
<path id="Path" d="M38 24V22" stroke="#CBCCFF" stroke-width="2" stroke-linecap="square"/>
<path id="Path_2" d="M40.121 24.879L41.536 23.464" stroke="#CBCCFF" stroke-width="2" stroke-linecap="square"/>
<path id="Path_3" d="M41 27H43" stroke="#CBCCFF" stroke-width="2" stroke-linecap="square"/>
<path id="Path_4" d="M40.121 29.121L41.536 30.536" stroke="#CBCCFF" stroke-width="2" stroke-linecap="square"/>
<path id="Path_5" d="M38 30V32" stroke="#CBCCFF" stroke-width="2" stroke-linecap="square"/>
<path id="Path_6" d="M35.879 29.121L34.464 30.536" stroke="#CBCCFF" stroke-width="2" stroke-linecap="square"/>
<path id="Path_7" d="M35 27H33" stroke="#CBCCFF" stroke-width="2" stroke-linecap="square"/>
<path id="Path_8" d="M35.879 24.879L34.464 23.464" stroke="#CBCCFF" stroke-width="2" stroke-linecap="square"/>
<circle id="Oval" cx="38" cy="27" r="3" stroke="#CBCCFF" stroke-width="2" stroke-linecap="square"/>
<path id="Path_9" d="M29.86 23.18C24.8 23.988 21 27.6 21 32C21 37 25.9 41 32 41C33.0475 41.0213 34.0923 40.8865 35.1 40.6L41 43L40.4 37.8C41.2506 36.9575 41.9272 35.9558 42.391 34.852" stroke="#F4F4FF" stroke-width="2" stroke-linecap="square"/>
</g>
</g>
</svg>
